<?xml version="1.0" encoding="UTF-8" standalone="no"?>
<!DOCTYPE svg PUBLIC "-//W3C//DTD SVG 1.0//EN" "http://www.w3.org/TR/2001/PR-SVG-20010719/DTD/svg10.dtd">
<svg width="227cm" height="99cm" viewBox="-448 -952 4531 1972" xmlns="http://www.w3.org/2000/svg" xmlns:xlink="http://www.w3.org/1999/xlink">
  <g id="Logic">
    <g>
      <rect style="fill: #ffffff; fill-opacity: 1; stroke-opacity: 1; stroke-width: 2; stroke: #000000" x="618.412" y="437.478" width="81.5" height="38" rx="0" ry="0"/>
      <text font-size="12.8" style="fill: #000000; fill-opacity: 1; stroke: none;text-anchor:middle;font-family:sans-serif;font-style:normal;font-weight:normal" x="659.162" y="460.378">
        <tspan x="659.162" y="460.378">MBD tree</tspan>
      </text>
    </g>
    <g>
      <rect style="fill: #ffffff; fill-opacity: 1; stroke-opacity: 1; stroke-width: 2; stroke: #000000" x="928.906" y="437.478" width="120.4" height="38" rx="0" ry="0"/>
      <text font-size="12.8" style="fill: #000000; fill-opacity: 1; stroke: none;text-anchor:middle;font-family:sans-serif;font-style:normal;font-weight:normal" x="989.106" y="460.378">
        <tspan x="989.106" y="460.378">MBD alignment</tspan>
      </text>
    </g>
    <g>
      <rect style="fill: #ffffff; fill-opacity: 1; stroke-opacity: 1; stroke-width: 2; stroke: #000000" x="1925.56" y="437.478" width="113.25" height="38" rx="0" ry="0"/>
      <text font-size="12.8" style="fill: #000000; fill-opacity: 1; stroke: none;text-anchor:middle;font-family:sans-serif;font-style:normal;font-weight:normal" x="1982.18" y="460.378">
        <tspan x="1982.18" y="460.378">MBD posterior</tspan>
      </text>
    </g>
    <g>
      <rect style="fill: #ffffff; fill-opacity: 1; stroke-opacity: 1; stroke-width: 2; stroke: #000000" x="2239.02" y="436.586" width="145.65" height="38" rx="0" ry="0"/>
      <text font-size="12.8" style="fill: #000000; fill-opacity: 1; stroke: none;text-anchor:middle;font-family:sans-serif;font-style:normal;font-weight:normal" x="2311.84" y="459.486">
        <tspan x="2311.84" y="459.486">MBD nLTT statistics</tspan>
      </text>
    </g>
    <g>
      <rect style="fill: #ffffff; fill-opacity: 1; stroke-opacity: 1; stroke-width: 2; stroke: #000000" x="2577.06" y="640.816" width="131.4" height="38" rx="0" ry="0"/>
      <text font-size="12.8" style="fill: #000000; fill-opacity: 1; stroke: none;text-anchor:middle;font-family:sans-serif;font-style:normal;font-weight:normal" x="2642.76" y="663.716">
        <tspan x="2642.76" y="663.716">MBD marg log lik</tspan>
      </text>
    </g>
    <g>
      <line style="fill: none; stroke-opacity: 1; stroke-width: 2; stroke: #000000" x1="699.912" y1="456.478" x2="919.17" y2="456.478"/>
      <polygon style="fill: #000000; fill-opacity: 1; stroke-opacity: 1; stroke-width: 2; stroke: #000000" fill-rule="evenodd" points="926.67,456.478 916.67,461.478 919.17,456.478 916.67,451.478 "/>
    </g>
    <text font-size="12.8" style="fill: #000000; fill-opacity: 1; stroke: none;text-anchor:start;font-family:sans-serif;font-style:normal;font-weight:normal" x="743" y="451.652">
      <tspan x="743" y="451.652">create_mbd_alignment</tspan>
    </text>
    <g>
      <rect style="fill: #ffffff; fill-opacity: 1; stroke-opacity: 1; stroke-width: 2; stroke: #000000" x="279.484" y="408.628" width="101" height="95" rx="0" ry="0"/>
      <text font-size="12.8" style="fill: #000000; fill-opacity: 1; stroke: none;text-anchor:middle;font-family:sans-serif;font-style:normal;font-weight:normal" x="329.984" y="460.028">
        <tspan x="329.984" y="460.028">parameters</tspan>
      </text>
    </g>
    <g>
      <line style="fill: none; stroke-opacity: 1; stroke-width: 2; stroke: #000000" x1="380.484" y1="456.128" x2="608.676" y2="456.464"/>
      <polygon style="fill: #000000; fill-opacity: 1; stroke-opacity: 1; stroke-width: 2; stroke: #000000" fill-rule="evenodd" points="616.176,456.475 606.169,461.46 608.676,456.464 606.183,451.46 "/>
    </g>
    <text font-size="12.8" style="fill: #000000; fill-opacity: 1; stroke: none;text-anchor:start;font-family:sans-serif;font-style:normal;font-weight:normal" x="446" y="451.652">
      <tspan x="446" y="451.652">create_mbd_tree</tspan>
    </text>
    <g>
      <line style="fill: none; stroke-opacity: 1; stroke-width: 2; stroke: #000000" x1="1049.31" y1="456.478" x2="1915.82" y2="456.478"/>
      <polygon style="fill: #000000; fill-opacity: 1; stroke-opacity: 1; stroke-width: 2; stroke: #000000" fill-rule="evenodd" points="1923.32,456.478 1913.32,461.478 1915.82,456.478 1913.32,451.478 "/>
    </g>
    <text font-size="12.8" style="fill: #000000; fill-opacity: 1; stroke: none;text-anchor:start;font-family:sans-serif;font-style:normal;font-weight:normal" x="1748.85" y="453.652">
      <tspan x="1748.85" y="453.652">create_mbd_posterior</tspan>
    </text>
    <text font-size="12.8" style="fill: #000000; fill-opacity: 1; stroke: none;text-anchor:start;font-family:sans-serif;font-style:normal;font-weight:normal" x="2093.84" y="451.026">
      <tspan x="2093.84" y="451.026">create_mbd_nltts</tspan>
    </text>
    <text font-size="12.8" style="fill: #000000; fill-opacity: 1; stroke: none;text-anchor:start;font-family:sans-serif;font-style:normal;font-weight:normal" x="1755.85" y="648.65">
      <tspan x="1755.85" y="648.65">raz_est_mbd_marg_lik</tspan>
      <tspan x="1755.85" y="664.65"></tspan>
    </text>
    <g>
      <polyline style="fill: none; stroke-opacity: 1; stroke-width: 2; stroke: #000000" points="989.106,475.478 989.106,659.816 2567.32,659.816 "/>
      <polygon style="fill: #000000; fill-opacity: 1; stroke-opacity: 1; stroke-width: 2; stroke: #000000" fill-rule="evenodd" points="2574.82,659.816 2564.82,664.816 2567.32,659.816 2564.82,654.816 "/>
    </g>
    <g>
      <line style="fill: none; stroke-opacity: 1; stroke-width: 2; stroke: #000000" x1="2038.8" y1="456.478" x2="2229.28" y2="455.629"/>
      <polygon style="fill: #000000; fill-opacity: 1; stroke-opacity: 1; stroke-width: 2; stroke: #000000" fill-rule="evenodd" points="2236.78,455.596 2226.81,460.64 2229.28,455.629 2226.76,450.641 "/>
    </g>
    <g>
      <rect style="fill: #ffffff; fill-opacity: 1; stroke-opacity: 1; stroke-width: 2; stroke: #000000" x="1282.9" y="892.504" width="81.5" height="38" rx="0" ry="0"/>
      <text font-size="12.8" style="fill: #000000; fill-opacity: 1; stroke: none;text-anchor:middle;font-family:sans-serif;font-style:normal;font-weight:normal" x="1323.65" y="915.404">
        <tspan x="1323.65" y="915.404">BD tree</tspan>
      </text>
    </g>
    <g>
      <rect style="fill: #ffffff; fill-opacity: 1; stroke-opacity: 1; stroke-width: 2; stroke: #000000" x="1592.52" y="895.588" width="120.4" height="38" rx="0" ry="0"/>
      <text font-size="12.8" style="fill: #000000; fill-opacity: 1; stroke: none;text-anchor:middle;font-family:sans-serif;font-style:normal;font-weight:normal" x="1652.72" y="918.488">
        <tspan x="1652.72" y="918.488">BD alignment</tspan>
      </text>
    </g>
    <g>
      <rect style="fill: #ffffff; fill-opacity: 1; stroke-opacity: 1; stroke-width: 2; stroke: #000000" x="1925.15" y="894.514" width="113.25" height="38" rx="0" ry="0"/>
      <text font-size="12.8" style="fill: #000000; fill-opacity: 1; stroke: none;text-anchor:middle;font-family:sans-serif;font-style:normal;font-weight:normal" x="1981.77" y="917.414">
        <tspan x="1981.77" y="917.414">BD posterior</tspan>
      </text>
    </g>
    <g>
      <rect style="fill: #ffffff; fill-opacity: 1; stroke-opacity: 1; stroke-width: 2; stroke: #000000" x="2238.88" y="895.64" width="145.65" height="38" rx="0" ry="0"/>
      <text font-size="12.8" style="fill: #000000; fill-opacity: 1; stroke: none;text-anchor:middle;font-family:sans-serif;font-style:normal;font-weight:normal" x="2311.7" y="918.54">
        <tspan x="2311.7" y="918.54">BD nLTT statistics</tspan>
      </text>
    </g>
    <g>
      <rect style="fill: #ffffff; fill-opacity: 1; stroke-opacity: 1; stroke-width: 2; stroke: #000000" x="2577.64" y="981.194" width="131.4" height="38" rx="0" ry="0"/>
      <text font-size="12.8" style="fill: #000000; fill-opacity: 1; stroke: none;text-anchor:middle;font-family:sans-serif;font-style:normal;font-weight:normal" x="2643.34" y="1004.09">
        <tspan x="2643.34" y="1004.09">BD marg log lik</tspan>
      </text>
    </g>
    <g>
      <line style="fill: none; stroke-opacity: 1; stroke-width: 2; stroke: #000000" x1="1364.4" y1="911.504" x2="1582.78" y2="914.456"/>
      <polygon style="fill: #000000; fill-opacity: 1; stroke-opacity: 1; stroke-width: 2; stroke: #000000" fill-rule="evenodd" points="1590.28,914.558 1580.22,919.422 1582.78,914.456 1580.35,909.423 "/>
    </g>
    <text font-size="12.8" style="fill: #000000; fill-opacity: 1; stroke: none;text-anchor:start;font-family:sans-serif;font-style:normal;font-weight:normal" x="1406.6" y="903.838">
      <tspan x="1406.6" y="903.838">create_bd_alignment</tspan>
    </text>
    <text font-size="12.8" style="fill: #000000; fill-opacity: 1; stroke: none;text-anchor:start;font-family:sans-serif;font-style:normal;font-weight:normal" x="659.162" y="693.492">
      <tspan x="659.162" y="693.492">create_bd_tree</tspan>
    </text>
    <g>
      <line style="fill: none; stroke-opacity: 1; stroke-width: 2; stroke: #000000" x1="1712.92" y1="914.588" x2="1915.41" y2="913.563"/>
      <polygon style="fill: #000000; fill-opacity: 1; stroke-opacity: 1; stroke-width: 2; stroke: #000000" fill-rule="evenodd" points="1922.91,913.525 1912.94,918.576 1915.41,913.563 1912.88,908.576 "/>
    </g>
    <text font-size="12.8" style="fill: #000000; fill-opacity: 1; stroke: none;text-anchor:start;font-family:sans-serif;font-style:normal;font-weight:normal" x="1748.43" y="904.764">
      <tspan x="1748.43" y="904.764">create_bd_posterior</tspan>
    </text>
    <text font-size="12.8" style="fill: #000000; fill-opacity: 1; stroke: none;text-anchor:start;font-family:sans-serif;font-style:normal;font-weight:normal" x="2092.18" y="908.89">
      <tspan x="2092.18" y="908.89">create_bd_nltts</tspan>
    </text>
    <text font-size="12.8" style="fill: #000000; fill-opacity: 1; stroke: none;text-anchor:start;font-family:sans-serif;font-style:normal;font-weight:normal" x="1752.81" y="986.776">
      <tspan x="1752.81" y="986.776">est_bd_marg_lik</tspan>
      <tspan x="1752.81" y="1002.78"></tspan>
    </text>
    <g>
      <polyline style="fill: none; stroke-opacity: 1; stroke-width: 2; stroke: #000000" points="1652.72,933.588 1652.72,1000.19 2567.9,1000.19 "/>
      <polygon style="fill: #000000; fill-opacity: 1; stroke-opacity: 1; stroke-width: 2; stroke: #000000" fill-rule="evenodd" points="2575.4,1000.19 2565.4,1005.19 2567.9,1000.19 2565.4,995.194 "/>
    </g>
    <g>
      <line style="fill: none; stroke-opacity: 1; stroke-width: 2; stroke: #000000" x1="2038.4" y1="913.514" x2="2229.14" y2="914.585"/>
      <polygon style="fill: #000000; fill-opacity: 1; stroke-opacity: 1; stroke-width: 2; stroke: #000000" fill-rule="evenodd" points="2236.64,914.627 2226.62,919.571 2229.14,914.585 2226.67,909.571 "/>
    </g>
    <g>
      <polyline style="fill: none; stroke-opacity: 1; stroke-width: 2; stroke: #000000" points="659.162,475.478 659.162,911.504 1273.16,911.504 "/>
      <polygon style="fill: #000000; fill-opacity: 1; stroke-opacity: 1; stroke-width: 2; stroke: #000000" fill-rule="evenodd" points="1280.66,911.504 1270.66,916.504 1273.16,911.504 1270.66,906.504 "/>
    </g>
    <g>
      <rect style="fill: #cccccc; fill-opacity: 1; stroke-opacity: 1; stroke-width: 4; stroke: #000000" x="268.2" y="-477.884" width="123.6" height="40" rx="0" ry="0"/>
      <text font-size="12.8" style="fill: #000000; fill-opacity: 1; stroke: none;text-anchor:middle;font-family:sans-serif;font-style:normal;font-weight:normal" x="330" y="-453.984">
        <tspan x="330" y="-453.984">parameters.csv</tspan>
      </text>
    </g>
    <g>
      <rect style="fill: #cccccc; fill-opacity: 1; stroke-opacity: 1; stroke-width: 4; stroke: #000000" x="620.022" y="-477.634" width="82.55" height="40" rx="0" ry="0"/>
      <text font-size="12.8" style="fill: #000000; fill-opacity: 1; stroke: none;text-anchor:middle;font-family:sans-serif;font-style:normal;font-weight:normal" x="661.297" y="-453.734">
        <tspan x="661.297" y="-453.734">mbd.tree</tspan>
      </text>
    </g>
    <g>
      <rect style="fill: #cccccc; fill-opacity: 1; stroke-opacity: 1; stroke-width: 4; stroke: #000000" x="946.68" y="-477.864" width="88.65" height="40" rx="0" ry="0"/>
      <text font-size="12.8" style="fill: #000000; fill-opacity: 1; stroke: none;text-anchor:middle;font-family:sans-serif;font-style:normal;font-weight:normal" x="991.005" y="-453.964">
        <tspan x="991.005" y="-453.964">mbd.fasta</tspan>
      </text>
    </g>
    <g>
      <rect style="fill: #cccccc; fill-opacity: 1; stroke-opacity: 1; stroke-width: 4; stroke: #000000" x="1938.39" y="-477.384" width="89.2" height="40" rx="0" ry="0"/>
      <text font-size="12.8" style="fill: #000000; fill-opacity: 1; stroke: none;text-anchor:middle;font-family:sans-serif;font-style:normal;font-weight:normal" x="1982.99" y="-453.484">
        <tspan x="1982.99" y="-453.484">mbd.trees</tspan>
      </text>
    </g>
    <g>
      <rect style="fill: #cccccc; fill-opacity: 1; stroke-opacity: 1; stroke-width: 4; stroke: #000000" x="1944.82" y="-319.912" width="76.35" height="40" rx="0" ry="0"/>
      <text font-size="12.8" style="fill: #000000; fill-opacity: 1; stroke: none;text-anchor:middle;font-family:sans-serif;font-style:normal;font-weight:normal" x="1982.99" y="-296.012">
        <tspan x="1982.99" y="-296.012">mbd.log</tspan>
      </text>
    </g>
    <g>
      <rect style="fill: #cccccc; fill-opacity: 1; stroke-opacity: 1; stroke-width: 4; stroke: #000000" x="2255.26" y="-477.95" width="112.8" height="40" rx="0" ry="0"/>
      <text font-size="12.8" style="fill: #000000; fill-opacity: 1; stroke: none;text-anchor:middle;font-family:sans-serif;font-style:normal;font-weight:normal" x="2311.66" y="-454.05">
        <tspan x="2311.66" y="-454.05">mbd_nltts.csv</tspan>
      </text>
    </g>
    <g>
      <rect style="fill: #cccccc; fill-opacity: 1; stroke-opacity: 1; stroke-width: 4; stroke: #000000" x="2573.8" y="-228.146" width="138.9" height="56" rx="0" ry="0"/>
      <text font-size="12.8" style="fill: #000000; fill-opacity: 1; stroke: none;text-anchor:middle;font-family:sans-serif;font-style:normal;font-weight:normal" x="2643.25" y="-196.246">
        <tspan x="2643.25" y="-196.246">mbd_marg_lik.csv</tspan>
      </text>
    </g>
    <text font-size="12.8" style="fill: #000000; fill-opacity: 1; stroke: none;text-anchor:start;font-family:sans-serif;font-style:normal;font-weight:normal" x="75.4762" y="-470.094">
      <tspan x="75.4762" y="-470.094">create_parameters_files</tspan>
    </text>
    <g>
      <ellipse style="fill: #ffffff; fill-opacity: 1; stroke-opacity: 1; stroke-width: 2; stroke: #000000" cx="37.644" cy="-457.876" rx="20" ry="20"/>
      <line style="fill: none; stroke-opacity: 1; stroke-width: 2; stroke: #000000" x1="23.502" y1="-472.018" x2="51.786" y2="-443.734"/>
      <line style="fill: none; stroke-opacity: 1; stroke-width: 2; stroke: #000000" x1="23.502" y1="-443.734" x2="51.786" y2="-472.018"/>
    </g>
    <g>
      <line style="fill: none; stroke-opacity: 1; stroke-width: 2; stroke: #000000" x1="57.644" y1="-457.876" x2="258.464" y2="-457.884"/>
      <polygon style="fill: #000000; fill-opacity: 1; stroke-opacity: 1; stroke-width: 2; stroke: #000000" fill-rule="evenodd" points="265.964,-457.884 255.964,-452.884 258.464,-457.884 255.964,-462.884 "/>
    </g>
    <g>
      <line style="fill: none; stroke-opacity: 1; stroke-width: 2; stroke: #000000" x1="391.8" y1="-457.884" x2="610.286" y2="-457.645"/>
      <polygon style="fill: #000000; fill-opacity: 1; stroke-opacity: 1; stroke-width: 2; stroke: #000000" fill-rule="evenodd" points="617.786,-457.636 607.78,-452.647 610.286,-457.645 607.791,-462.647 "/>
    </g>
    <text font-size="12.8" style="fill: #000000; fill-opacity: 1; stroke: none;text-anchor:start;font-family:sans-serif;font-style:normal;font-weight:normal" x="408.992" y="-465.196">
      <tspan x="408.992" y="-465.196">create_mbd_tree_file</tspan>
    </text>
    <text font-size="12.8" style="fill: #000000; fill-opacity: 1; stroke: none;text-anchor:start;font-family:sans-serif;font-style:normal;font-weight:normal" x="753.574" y="-471.342">
      <tspan x="753.574" y="-471.342">create_mbd_alignment_file</tspan>
    </text>
    <text font-size="12.8" style="fill: #000000; fill-opacity: 1; stroke: none;text-anchor:start;font-family:sans-serif;font-style:normal;font-weight:normal" x="1725.95" y="-471.342">
      <tspan x="1725.95" y="-471.342">create_mbd_posterior_files</tspan>
    </text>
    <g>
      <line style="fill: none; stroke-opacity: 1; stroke-width: 2; stroke: #000000" x1="702.572" y1="-457.634" x2="935.004" y2="-457.819"/>
      <polygon style="fill: #000000; fill-opacity: 1; stroke-opacity: 1; stroke-width: 2; stroke: #000000" fill-rule="evenodd" points="942.504,-457.825 932.508,-452.817 935.004,-457.819 932.5,-462.817 "/>
    </g>
    <g>
      <line style="fill: none; stroke-opacity: 1; stroke-width: 2; stroke: #000000" x1="1035.33" y1="-457.864" x2="1928.66" y2="-457.389"/>
      <polygon style="fill: #000000; fill-opacity: 1; stroke-opacity: 1; stroke-width: 2; stroke: #000000" fill-rule="evenodd" points="1936.16,-457.385 1926.16,-452.391 1928.66,-457.389 1926.16,-462.391 "/>
    </g>
    <g>
      <polyline style="fill: none; stroke-opacity: 1; stroke-width: 2; stroke: #000000" points="1035.33,-457.864 1490.07,-457.864 1490.07,-299.912 1935.08,-299.912 "/>
      <polygon style="fill: #000000; fill-opacity: 1; stroke-opacity: 1; stroke-width: 2; stroke: #000000" fill-rule="evenodd" points="1942.58,-299.912 1932.58,-294.912 1935.08,-299.912 1932.58,-304.912 "/>
    </g>
    <g>
      <line style="fill: none; stroke-opacity: 1; stroke-width: 2; stroke: #000000" x1="2027.6" y1="-457.384" x2="2245.52" y2="-457.926"/>
      <polygon style="fill: #000000; fill-opacity: 1; stroke-opacity: 1; stroke-width: 2; stroke: #000000" fill-rule="evenodd" points="2253.02,-457.944 2243.04,-452.92 2245.52,-457.926 2243.01,-462.92 "/>
    </g>
    <g>
      <polyline style="fill: none; stroke-opacity: 1; stroke-width: 2; stroke: #000000" points="991.005,-437.864 991.005,-200.146 2564.06,-200.146 "/>
      <polygon style="fill: #000000; fill-opacity: 1; stroke-opacity: 1; stroke-width: 2; stroke: #000000" fill-rule="evenodd" points="2571.56,-200.146 2561.56,-195.146 2564.06,-200.146 2561.56,-205.146 "/>
    </g>
    <text font-size="12.8" style="fill: #000000; fill-opacity: 1; stroke: none;text-anchor:start;font-family:sans-serif;font-style:normal;font-weight:normal" x="2374.82" y="-212.068">
      <tspan x="2374.82" y="-212.068">raz_create_mbd_marg_lik_file</tspan>
    </text>
    <g>
      <line style="fill: none; stroke-opacity: 1; stroke-width: 2; stroke: #000000" x1="330" y1="-437.884" x2="329.984" y2="398.892"/>
      <polygon style="fill: #000000; fill-opacity: 1; stroke-opacity: 1; stroke-width: 2; stroke: #000000" fill-rule="evenodd" points="329.984,406.392 324.984,396.392 329.984,398.892 334.984,396.392 "/>
    </g>
    <text font-size="12.8" style="fill: #000000; fill-opacity: 1; stroke: none;text-anchor:start;font-family:sans-serif;font-style:normal;font-weight:normal" x="342.486" y="-242.41">
      <tspan x="342.486" y="-242.41">open_params_file</tspan>
    </text>
    <g>
      <rect style="fill: #ffffff; fill-opacity: 1; stroke-opacity: 1; stroke-width: 2; stroke: #000000" x="3528.1" y="640.806" width="214.2" height="38" rx="0" ry="0"/>
      <text font-size="12.8" style="fill: #000000; fill-opacity: 1; stroke: none;text-anchor:middle;font-family:sans-serif;font-style:normal;font-weight:normal" x="3635.2" y="663.706">
        <tspan x="3635.2" y="663.706">All marginal likelihoods</tspan>
      </text>
    </g>
    <g>
      <rect style="fill: #ffffff; fill-opacity: 1; stroke-opacity: 1; stroke-width: 2; stroke: #000000" x="3261.88" y="540.468" width="80.85" height="38" rx="0" ry="0"/>
      <text font-size="12.8" style="fill: #000000; fill-opacity: 1; stroke: none;text-anchor:middle;font-family:sans-serif;font-style:normal;font-weight:normal" x="3302.31" y="563.368">
        <tspan x="3302.31" y="563.368">All ESSes</tspan>
      </text>
    </g>
    <g>
      <rect style="fill: #ffffff; fill-opacity: 1; stroke-opacity: 1; stroke-width: 2; stroke: #000000" x="2905.36" y="436.982" width="131.8" height="38" rx="0" ry="0"/>
      <text font-size="12.8" style="fill: #000000; fill-opacity: 1; stroke: none;text-anchor:middle;font-family:sans-serif;font-style:normal;font-weight:normal" x="2971.26" y="459.882">
        <tspan x="2971.26" y="459.882">All nLTT statistics</tspan>
      </text>
    </g>
    <g>
      <rect style="fill: #ffffff; fill-opacity: 1; stroke-opacity: 1; stroke-width: 2; stroke: #000000" x="3893.38" y="436.416" width="138.55" height="38" rx="0" ry="0"/>
      <text font-size="12.8" style="fill: #000000; fill-opacity: 1; stroke: none;text-anchor:middle;font-family:sans-serif;font-style:normal;font-weight:normal" x="3962.66" y="459.316">
        <tspan x="3962.66" y="459.316">Figure 1 (as gplot)</tspan>
      </text>
    </g>
    <g>
      <line style="fill: none; stroke-opacity: 1; stroke-width: 2; stroke: #000000" x1="2384.68" y1="455.586" x2="2895.62" y2="455.975"/>
      <polygon style="fill: #000000; fill-opacity: 1; stroke-opacity: 1; stroke-width: 2; stroke: #000000" fill-rule="evenodd" points="2903.12,455.98 2893.12,460.973 2895.62,455.975 2893.13,450.973 "/>
    </g>
    <g>
      <polyline style="fill: none; stroke-opacity: 1; stroke-width: 2; stroke: #000000" points="1982.18,475.478 1982.18,559.468 3252.14,559.468 "/>
      <polygon style="fill: #000000; fill-opacity: 1; stroke-opacity: 1; stroke-width: 2; stroke: #000000" fill-rule="evenodd" points="3259.64,559.468 3249.64,564.468 3252.14,559.468 3249.64,554.468 "/>
    </g>
    <g>
      <line style="fill: none; stroke-opacity: 1; stroke-width: 2; stroke: #000000" x1="2708.46" y1="659.816" x2="3518.36" y2="659.806"/>
      <polygon style="fill: #000000; fill-opacity: 1; stroke-opacity: 1; stroke-width: 2; stroke: #000000" fill-rule="evenodd" points="3525.86,659.806 3515.86,664.806 3518.36,659.806 3515.86,654.806 "/>
    </g>
    <g>
      <line style="fill: none; stroke-opacity: 1; stroke-width: 2; stroke: #000000" x1="3037.16" y1="455.982" x2="3883.64" y2="455.422"/>
      <polygon style="fill: #000000; fill-opacity: 1; stroke-opacity: 1; stroke-width: 2; stroke: #000000" fill-rule="evenodd" points="3891.14,455.417 3881.15,460.424 3883.64,455.422 3881.14,450.424 "/>
    </g>
    <g>
      <rect style="fill: #cccccc; fill-opacity: 1; stroke-opacity: 1; stroke-width: 4; stroke: #000000" x="2895.74" y="-477.438" width="155.6" height="40" rx="0" ry="0"/>
      <text font-size="12.8" style="fill: #000000; fill-opacity: 1; stroke: none;text-anchor:middle;font-family:sans-serif;font-style:normal;font-weight:normal" x="2973.54" y="-453.538">
        <tspan x="2973.54" y="-453.538">results/nltts.csv</tspan>
      </text>
    </g>
    <g>
      <rect style="fill: #cccccc; fill-opacity: 1; stroke-opacity: 1; stroke-width: 4; stroke: #000000" x="3223.36" y="-319.364" width="155.6" height="40" rx="0" ry="0"/>
      <text font-size="12.8" style="fill: #000000; fill-opacity: 1; stroke: none;text-anchor:middle;font-family:sans-serif;font-style:normal;font-weight:normal" x="3301.16" y="-295.464">
        <tspan x="3301.16" y="-295.464">results/esses.csv</tspan>
      </text>
    </g>
    <g>
      <rect style="fill: #cccccc; fill-opacity: 1; stroke-opacity: 1; stroke-width: 4; stroke: #000000" x="3552.44" y="-220.138" width="157.5" height="40" rx="0" ry="0"/>
      <text font-size="12.8" style="fill: #000000; fill-opacity: 1; stroke: none;text-anchor:middle;font-family:sans-serif;font-style:normal;font-weight:normal" x="3631.19" y="-196.238">
        <tspan x="3631.19" y="-196.238">results/marg_liks.csv</tspan>
      </text>
    </g>
    <g>
      <line style="fill: none; stroke-opacity: 1; stroke-width: 2; stroke: #000000" x1="2021.16" y1="-299.912" x2="3213.62" y2="-299.368"/>
      <polygon style="fill: #000000; fill-opacity: 1; stroke-opacity: 1; stroke-width: 2; stroke: #000000" fill-rule="evenodd" points="3221.12,-299.365 3211.12,-294.37 3213.62,-299.368 3211.13,-304.37 "/>
    </g>
    <g>
      <line style="fill: none; stroke-opacity: 1; stroke-width: 2; stroke: #000000" x1="2368.06" y1="-457.95" x2="2886" y2="-457.447"/>
      <polygon style="fill: #000000; fill-opacity: 1; stroke-opacity: 1; stroke-width: 2; stroke: #000000" fill-rule="evenodd" points="2893.5,-457.44 2883.5,-452.45 2886,-457.447 2883.51,-462.45 "/>
    </g>
    <g>
      <line style="fill: none; stroke-opacity: 1; stroke-width: 2; stroke: #000000" x1="2712.7" y1="-200.146" x2="3542.7" y2="-200.138"/>
      <polygon style="fill: #000000; fill-opacity: 1; stroke-opacity: 1; stroke-width: 2; stroke: #000000" fill-rule="evenodd" points="3550.2,-200.138 3540.2,-195.138 3542.7,-200.138 3540.2,-205.138 "/>
    </g>
    <g>
      <rect style="fill: #cccccc; fill-opacity: 1; stroke-opacity: 1; stroke-width: 4; stroke: #000000" x="3883.22" y="-477.278" width="157.5" height="40" rx="0" ry="0"/>
      <text font-size="12.8" style="fill: #000000; fill-opacity: 1; stroke: none;text-anchor:middle;font-family:sans-serif;font-style:normal;font-weight:normal" x="3961.97" y="-453.378">
        <tspan x="3961.97" y="-453.378">results/figure_1.png</tspan>
      </text>
    </g>
    <g>
      <line style="fill: none; stroke-opacity: 1; stroke-width: 2; stroke: #000000" x1="3051.34" y1="-457.438" x2="3873.48" y2="-457.28"/>
      <polygon style="fill: #000000; fill-opacity: 1; stroke-opacity: 1; stroke-width: 2; stroke: #000000" fill-rule="evenodd" points="3880.98,-457.278 3870.98,-452.28 3873.48,-457.28 3870.98,-462.28 "/>
    </g>
    <text font-size="12.8" style="fill: #000000; fill-opacity: 1; stroke: none;text-anchor:start;font-family:sans-serif;font-style:normal;font-weight:normal" x="2459.24" y="451.264">
      <tspan x="2459.24" y="451.264">raz_collect_nltt_stats</tspan>
    </text>
    <text font-size="12.8" style="fill: #000000; fill-opacity: 1; stroke: none;text-anchor:start;font-family:sans-serif;font-style:normal;font-weight:normal" x="2002.7" y="553.832">
      <tspan x="2002.7" y="553.832">raz_collect_esses</tspan>
    </text>
    <text font-size="12.8" style="fill: #000000; fill-opacity: 1; stroke: none;text-anchor:start;font-family:sans-serif;font-style:normal;font-weight:normal" x="2773.76" y="652.316">
      <tspan x="2773.76" y="652.316">raz_collect_marg_liks</tspan>
    </text>
    <text font-size="12.8" style="fill: #000000; fill-opacity: 1; stroke: none;text-anchor:start;font-family:sans-serif;font-style:normal;font-weight:normal" x="2685.92" y="-466.408">
      <tspan x="2685.92" y="-466.408">raz_create_nltt_stats_file</tspan>
    </text>
    <text font-size="12.8" style="fill: #000000; fill-opacity: 1; stroke: none;text-anchor:start;font-family:sans-serif;font-style:normal;font-weight:normal" x="3049.22" y="-303.776">
      <tspan x="3049.22" y="-303.776">raz_create_esses_file</tspan>
    </text>
    <text font-size="12.8" style="fill: #000000; fill-opacity: 1; stroke: none;text-anchor:start;font-family:sans-serif;font-style:normal;font-weight:normal" x="3352.46" y="-209.346">
      <tspan x="3352.46" y="-209.346">create_marg_liks_file</tspan>
    </text>
    <g>
      <rect style="fill: #cccccc; fill-opacity: 1; stroke-opacity: 1; stroke-width: 4; stroke: #000000" x="1615.33" y="-20.6714" width="75.8" height="40" rx="0" ry="0"/>
      <text font-size="12.8" style="fill: #000000; fill-opacity: 1; stroke: none;text-anchor:middle;font-family:sans-serif;font-style:normal;font-weight:normal" x="1653.23" y="3.2286">
        <tspan x="1653.23" y="3.2286">bd.fas</tspan>
      </text>
    </g>
    <g>
      <rect style="fill: #cccccc; fill-opacity: 1; stroke-opacity: 1; stroke-width: 4; stroke: #000000" x="1938.05" y="-20.1916" width="89.2" height="40" rx="0" ry="0"/>
      <text font-size="12.8" style="fill: #000000; fill-opacity: 1; stroke: none;text-anchor:middle;font-family:sans-serif;font-style:normal;font-weight:normal" x="1982.65" y="3.7084">
        <tspan x="1982.65" y="3.7084">bd.trees</tspan>
      </text>
    </g>
    <g>
      <rect style="fill: #cccccc; fill-opacity: 1; stroke-opacity: 1; stroke-width: 4; stroke: #000000" x="1944.47" y="50.9864" width="76.35" height="40" rx="0" ry="0"/>
      <text font-size="12.8" style="fill: #000000; fill-opacity: 1; stroke: none;text-anchor:middle;font-family:sans-serif;font-style:normal;font-weight:normal" x="1982.65" y="74.8864">
        <tspan x="1982.65" y="74.8864">bd.log</tspan>
      </text>
    </g>
    <g>
      <rect style="fill: #cccccc; fill-opacity: 1; stroke-opacity: 1; stroke-width: 4; stroke: #000000" x="2257.1" y="-21.222" width="112.8" height="40" rx="0" ry="0"/>
      <text font-size="12.8" style="fill: #000000; fill-opacity: 1; stroke: none;text-anchor:middle;font-family:sans-serif;font-style:normal;font-weight:normal" x="2313.5" y="2.678">
        <tspan x="2313.5" y="2.678">bd_nltts.csv</tspan>
      </text>
    </g>
    <text font-size="12.8" style="fill: #000000; fill-opacity: 1; stroke: none;text-anchor:start;font-family:sans-serif;font-style:normal;font-weight:normal" x="1704.89" y="-9.78762">
      <tspan x="1704.89" y="-9.78762">raz_create_bd_posterior_files</tspan>
    </text>
    <g>
      <line style="fill: none; stroke-opacity: 1; stroke-width: 2; stroke: #000000" x1="1691.13" y1="-0.6714" x2="1928.32" y2="-0.210519"/>
      <polygon style="fill: #000000; fill-opacity: 1; stroke-opacity: 1; stroke-width: 2; stroke: #000000" fill-rule="evenodd" points="1935.82,-0.195945 1925.81,4.78461 1928.32,-0.210519 1925.83,-5.21537 "/>
    </g>
    <g>
      <polyline style="fill: none; stroke-opacity: 1; stroke-width: 2; stroke: #000000" points="1691.13,-0.6714 1817.8,-0.6714 1817.8,70.9864 1934.74,70.9864 "/>
      <polygon style="fill: #000000; fill-opacity: 1; stroke-opacity: 1; stroke-width: 2; stroke: #000000" fill-rule="evenodd" points="1942.24,70.9864 1932.24,75.9864 1934.74,70.9864 1932.24,65.9864 "/>
    </g>
    <g>
      <rect style="fill: #cccccc; fill-opacity: 1; stroke-opacity: 1; stroke-width: 4; stroke: #000000" x="1283.11" y="-20.2106" width="82.55" height="40" rx="0" ry="0"/>
      <text font-size="12.8" style="fill: #000000; fill-opacity: 1; stroke: none;text-anchor:middle;font-family:sans-serif;font-style:normal;font-weight:normal" x="1324.39" y="3.6894">
        <tspan x="1324.39" y="3.6894">bd.tree</tspan>
      </text>
    </g>
    <g>
      <rect style="fill: #cccccc; fill-opacity: 1; stroke-opacity: 1; stroke-width: 4; stroke: #000000" x="2574.1" y="178.948" width="138.9" height="40" rx="0" ry="0"/>
      <text font-size="12.8" style="fill: #000000; fill-opacity: 1; stroke: none;text-anchor:middle;font-family:sans-serif;font-style:normal;font-weight:normal" x="2643.55" y="202.848">
        <tspan x="2643.55" y="202.848">bd_marg_lik.csv</tspan>
      </text>
    </g>
    <g>
      <polyline style="fill: none; stroke-opacity: 1; stroke-width: 2; stroke: #000000" points="1653.23,19.3286 1653.23,198.948 2564.36,198.948 "/>
      <polygon style="fill: #000000; fill-opacity: 1; stroke-opacity: 1; stroke-width: 2; stroke: #000000" fill-rule="evenodd" points="2571.86,198.948 2561.86,203.948 2564.36,198.948 2561.86,193.948 "/>
    </g>
    <g>
      <rect style="fill: #cccccc; fill-opacity: 1; stroke-opacity: 1; stroke-width: 4; stroke: #000000" x="591.068" y="79.7914" width="136.15" height="40" rx="0" ry="0"/>
      <text font-size="12.8" style="fill: #000000; fill-opacity: 1; stroke: none;text-anchor:middle;font-family:sans-serif;font-style:normal;font-weight:normal" x="659.143" y="103.691">
        <tspan x="659.143" y="103.691">mbd_l_matrix.csv</tspan>
      </text>
    </g>
    <g>
      <polyline style="fill: none; stroke-opacity: 1; stroke-width: 2; stroke: #000000" points="391.8,-457.884 491.434,-457.884 491.434,99.7914 581.332,99.7914 "/>
      <polygon style="fill: #000000; fill-opacity: 1; stroke-opacity: 1; stroke-width: 2; stroke: #000000" fill-rule="evenodd" points="588.832,99.7914 578.832,104.791 581.332,99.7914 578.832,94.7914 "/>
    </g>
    <g>
      <polyline style="fill: none; stroke-opacity: 1; stroke-width: 2; stroke: #000000" points="661.297,-437.634 661.297,-0.2106 1273.38,-0.2106 "/>
      <polygon style="fill: #000000; fill-opacity: 1; stroke-opacity: 1; stroke-width: 2; stroke: #000000" fill-rule="evenodd" points="1280.88,-0.2106 1270.88,4.7894 1273.38,-0.2106 1270.88,-5.2106 "/>
    </g>
    <g>
      <polyline style="fill: none; stroke-opacity: 1; stroke-width: 2; stroke: #000000" points="659.143,79.7914 659.143,-0.2106 1273.38,-0.2106 "/>
      <polygon style="fill: #000000; fill-opacity: 1; stroke-opacity: 1; stroke-width: 2; stroke: #000000" fill-rule="evenodd" points="1280.88,-0.2106 1270.88,4.7894 1273.38,-0.2106 1270.88,-5.2106 "/>
    </g>
    <text font-size="12.8" style="fill: #000000; fill-opacity: 1; stroke: none;text-anchor:start;font-family:sans-serif;font-style:normal;font-weight:normal" x="678.006" y="-10.055">
      <tspan x="678.006" y="-10.055">raz_create_bd_tree_file</tspan>
    </text>
    <g>
      <line style="fill: none; stroke-opacity: 1; stroke-width: 2; stroke: #000000" x1="1365.67" y1="-0.210536" x2="1605.6" y2="-0.653399"/>
      <polygon style="fill: #000000; fill-opacity: 1; stroke-opacity: 1; stroke-width: 2; stroke: #000000" fill-rule="evenodd" points="1613.1,-0.667243 1603.11,4.35121 1605.6,-0.653399 1603.09,-5.64878 "/>
    </g>
    <text font-size="12.8" style="fill: #000000; fill-opacity: 1; stroke: none;text-anchor:start;font-family:sans-serif;font-style:normal;font-weight:normal" x="1394.87" y="-6.9843">
      <tspan x="1394.87" y="-6.9843">raz_create_bd_alignment_file</tspan>
    </text>
    <text font-size="12.8" style="fill: #000000; fill-opacity: 1; stroke: none;text-anchor:start;font-family:sans-serif;font-style:normal;font-weight:normal" x="2077.04" y="-15.7555">
      <tspan x="2077.04" y="-15.7555">raz_create_bd_nltts_file</tspan>
    </text>
    <g>
      <line style="fill: none; stroke-opacity: 1; stroke-width: 2; stroke: #000000" x1="2027.26" y1="-0.191668" x2="2247.36" y2="-1.17827"/>
      <polygon style="fill: #000000; fill-opacity: 1; stroke-opacity: 1; stroke-width: 2; stroke: #000000" fill-rule="evenodd" points="2254.86,-1.21189 2244.89,3.83289 2247.36,-1.17827 2244.84,-6.16701 "/>
    </g>
    <g>
      <rect style="fill: #080808; fill-opacity: 1; stroke-opacity: 1; stroke-width: 4; stroke: #ffffff" x="-117.823" y="-934.69" width="235.75" height="40" rx="0" ry="0"/>
      <text font-size="12.8" style="fill: #ffffff; fill-opacity: 1; stroke: none;text-anchor:middle;font-family:sans-serif;font-style:normal;font-weight:normal" x="0.0522" y="-910.79">
        <tspan x="0.0522" y="-910.79">1_install_razzo.sh</tspan>
      </text>
    </g>
    <g>
      <rect style="fill: #080808; fill-opacity: 1; stroke-opacity: 1; stroke-width: 4; stroke: #ffffff" x="211.706" y="-935.392" width="235.75" height="40" rx="0" ry="0"/>
      <text font-size="12.8" style="fill: #ffffff; fill-opacity: 1; stroke: none;text-anchor:middle;font-family:sans-serif;font-style:normal;font-weight:normal" x="329.581" y="-911.492">
        <tspan x="329.581" y="-911.492">2_create_parameter_files.sh</tspan>
      </text>
    </g>
    <g>
      <line style="fill: none; stroke-opacity: 1; stroke-width: 2; stroke: #000000" x1="117.927" y1="-914.69" x2="201.97" y2="-915.319"/>
      <polygon style="fill: #000000; fill-opacity: 1; stroke-opacity: 1; stroke-width: 2; stroke: #000000" fill-rule="evenodd" points="209.47,-915.375 199.508,-910.301 201.97,-915.319 199.433,-920.3 "/>
    </g>
    <g>
      <rect style="fill: #080808; fill-opacity: 1; stroke-opacity: 1; stroke-width: 4; stroke: #ffffff" x="538.506" y="-935.172" width="1318.98" height="40" rx="0" ry="0"/>
      <text font-size="12.8" style="fill: #ffffff; fill-opacity: 1; stroke: none;text-anchor:middle;font-family:sans-serif;font-style:normal;font-weight:normal" x="1197.99" y="-911.272">
        <tspan x="1197.99" y="-911.272">3_create_input_files.sh</tspan>
      </text>
    </g>
    <g>
      <rect style="fill: #080808; fill-opacity: 1; stroke-opacity: 1; stroke-width: 4; stroke: #ffffff" x="1863.15" y="-933.994" width="235.75" height="40" rx="0" ry="0"/>
      <text font-size="12.8" style="fill: #ffffff; fill-opacity: 1; stroke: none;text-anchor:middle;font-family:sans-serif;font-style:normal;font-weight:normal" x="1981.02" y="-910.094">
        <tspan x="1981.02" y="-910.094">4_create_posterior_files.sh</tspan>
      </text>
    </g>
    <g>
      <rect style="fill: #080808; fill-opacity: 1; stroke-opacity: 1; stroke-width: 4; stroke: #ffffff" x="2195.14" y="-938.102" width="235.75" height="40" rx="0" ry="0"/>
      <text font-size="12.8" style="fill: #ffffff; fill-opacity: 1; stroke: none;text-anchor:middle;font-family:sans-serif;font-style:normal;font-weight:normal" x="2313.02" y="-914.202">
        <tspan x="2313.02" y="-914.202">5_create_nltt_files.sh</tspan>
      </text>
    </g>
    <g>
      <rect style="fill: #080808; fill-opacity: 1; stroke-opacity: 1; stroke-width: 4; stroke: #ffffff" x="2525.98" y="-936.114" width="235.75" height="40" rx="0" ry="0"/>
      <text font-size="12.8" style="fill: #ffffff; fill-opacity: 1; stroke: none;text-anchor:middle;font-family:sans-serif;font-style:normal;font-weight:normal" x="2643.86" y="-912.214">
        <tspan x="2643.86" y="-912.214">6_create_marg_lik_files.sh</tspan>
      </text>
    </g>
    <g>
      <rect style="fill: #080808; fill-opacity: 1; stroke-opacity: 1; stroke-width: 4; stroke: #ffffff" x="2855.42" y="-934.614" width="235.75" height="40" rx="0" ry="0"/>
      <text font-size="12.8" style="fill: #ffffff; fill-opacity: 1; stroke: none;text-anchor:middle;font-family:sans-serif;font-style:normal;font-weight:normal" x="2973.3" y="-910.714">
        <tspan x="2973.3" y="-910.714">7_create_nltt_stats_file.sh</tspan>
      </text>
    </g>
    <g>
      <rect style="fill: #080808; fill-opacity: 1; stroke-opacity: 1; stroke-width: 4; stroke: #ffffff" x="3185.46" y="-934.614" width="235.75" height="40" rx="0" ry="0"/>
      <text font-size="12.8" style="fill: #ffffff; fill-opacity: 1; stroke: none;text-anchor:middle;font-family:sans-serif;font-style:normal;font-weight:normal" x="3303.34" y="-910.714">
        <tspan x="3303.34" y="-910.714">8_create_esses_file.sh</tspan>
      </text>
    </g>
    <g>
      <rect style="fill: #080808; fill-opacity: 1; stroke-opacity: 1; stroke-width: 4; stroke: #ffffff" x="3516.3" y="-932.626" width="235.75" height="40" rx="0" ry="0"/>
      <text font-size="12.8" style="fill: #ffffff; fill-opacity: 1; stroke: none;text-anchor:middle;font-family:sans-serif;font-style:normal;font-weight:normal" x="3634.18" y="-908.726">
        <tspan x="3634.18" y="-908.726">9_create_marg_liks_file</tspan>
      </text>
    </g>
    <g>
      <rect style="fill: #080808; fill-opacity: 1; stroke-opacity: 1; stroke-width: 4; stroke: #ffffff" x="3845.76" y="-931.126" width="235.75" height="40" rx="0" ry="0"/>
      <text font-size="12.8" style="fill: #ffffff; fill-opacity: 1; stroke: none;text-anchor:middle;font-family:sans-serif;font-style:normal;font-weight:normal" x="3963.64" y="-907.226">
        <tspan x="3963.64" y="-907.226">10_create_result_fig_1_file.sh</tspan>
      </text>
    </g>
    <g>
      <polyline style="fill: none; stroke-opacity: 1; stroke-width: 2; stroke: #000000" points="2709.04,1000.19 3118.57,1000.19 3118.57,659.806 3518.36,659.806 "/>
      <polygon style="fill: #000000; fill-opacity: 1; stroke-opacity: 1; stroke-width: 2; stroke: #000000" fill-rule="evenodd" points="3525.86,659.806 3515.86,664.806 3518.36,659.806 3515.86,654.806 "/>
    </g>
    <g>
      <polyline style="fill: none; stroke-opacity: 1; stroke-width: 2; stroke: #000000" points="2038.4,904.014 2069.5,904.014 2069.5,559.468 3252.14,559.468 "/>
      <polygon style="fill: #000000; fill-opacity: 1; stroke-opacity: 1; stroke-width: 2; stroke: #000000" fill-rule="evenodd" points="3259.64,559.468 3249.64,564.468 3252.14,559.468 3249.64,554.468 "/>
    </g>
    <g>
      <polyline style="fill: none; stroke-opacity: 1; stroke-width: 2; stroke: #000000" points="2384.52,905.14 2524.46,905.14 2524.46,455.982 2895.62,455.982 "/>
      <polygon style="fill: #000000; fill-opacity: 1; stroke-opacity: 1; stroke-width: 2; stroke: #000000" fill-rule="evenodd" points="2903.12,455.982 2893.12,460.982 2895.62,455.982 2893.12,450.982 "/>
    </g>
    <text font-size="56.4444" style="fill: #000000; fill-opacity: 1; stroke: none;text-anchor:start;font-family:sans-serif;font-style:normal;font-weight:normal" x="-378.03" y="-899.12">
      <tspan x="-378.03" y="-899.12">Scripts</tspan>
    </text>
    <text font-size="56.4444" style="fill: #000000; fill-opacity: 1; stroke: none;text-anchor:start;font-family:sans-serif;font-style:normal;font-weight:normal" x="-382.788" y="-442.47">
      <tspan x="-382.788" y="-442.47">Files</tspan>
    </text>
    <text font-size="56.4444" style="fill: #000000; fill-opacity: 1; stroke: none;text-anchor:start;font-family:sans-serif;font-style:normal;font-weight:normal" x="-447.004" y="470.826">
      <tspan x="-447.004" y="470.826">Functions</tspan>
    </text>
    <text font-size="12.8" style="fill: #000000; fill-opacity: 1; stroke: none;text-anchor:start;font-family:sans-serif;font-style:normal;font-weight:normal" x="2374.7" y="185.309">
      <tspan x="2374.7" y="185.309">raz_create_bd_marg_lik_file</tspan>
    </text>
  </g>
</svg>
